<svg width="15" height="12" viewBox="0 0 15 12" fill="none" xmlns="http://www.w3.org/2000/svg">
<path fill-rule="evenodd" clip-rule="evenodd" d="M0.697876 11.6419V1.51822C0.697876 0.990149 1.10434 0.562012 1.60569 0.562012H14.1394V1.58282H1.66707V11.6419H0.697876ZM3.58176 3.29208L7.07386 7.06819C7.3113 7.33604 7.70904 7.35325 7.96661 7.10691C7.96661 7.10691 11.0066 4.26077 11.8528 3.49647C12.699 2.73217 14.1394 2.94624 14.1394 4.08462V9.49216C14.1394 10.6795 13.2256 11.6419 12.0984 11.6419H3.2213V10.6212H12.0812C12.6826 10.6212 13.1702 10.1075 13.1702 9.47398V4.30966C13.1702 3.92708 12.9181 3.96678 12.7595 4.11657L8.24163 8.22367C7.79304 8.64751 7.10495 8.61491 6.6943 8.15036L2.87355 3.98894L3.58176 3.29208Z" fill="white"/>
</svg>
