<svg width="24" height="24" viewBox="0 0 24 24" fill="none" xmlns="http://www.w3.org/2000/svg">
<circle cx="12" cy="12" r="11.25" fill="#E9E5E5" stroke="#E9E5E5" stroke-width="0.5"/>
<path d="M13.0959 10.7307H13.1128V10.7042L13.0959 10.7307ZM13.0959 10.7307H13.1128V10.7042L13.0959 10.7307ZM13.0959 10.7307H13.1128V10.7042L13.0959 10.7307ZM13.0959 10.7307H13.1128V10.7042L13.0959 10.7307ZM13.0959 10.7307H13.1128V10.7042L13.0959 10.7307ZM13.0959 10.7307H13.1128V10.7042L13.0959 10.7307ZM13.0959 10.7307H13.1128V10.7042L13.0959 10.7307ZM13.0959 10.7307H13.1128V10.7042L13.0959 10.7307ZM13.0959 10.7307H13.1128V10.7042L13.0959 10.7307ZM13.0959 10.7307H13.1128V10.7042L13.0959 10.7307ZM13.0959 10.7307H13.1128V10.7042L13.0959 10.7307ZM13.0959 10.7307H13.1128V10.7042L13.0959 10.7307ZM13.0959 10.7307H13.1128V10.7042L13.0959 10.7307ZM13.0959 10.7307H13.1128V10.7042L13.0959 10.7307ZM13.0959 10.7307H13.1128V10.7042L13.0959 10.7307ZM13.0959 10.7307H13.1128V10.7042L13.0959 10.7307ZM12 1C9.82441 1 7.69767 1.64514 5.88873 2.85383C4.07979 4.06253 2.66989 5.78049 1.83733 7.79048C1.00477 9.80047 0.78693 12.0122 1.21137 14.146C1.6358 16.2798 2.68345 18.2398 4.22183 19.7782C5.76021 21.3165 7.72022 22.3642 9.85401 22.7886C11.9878 23.2131 14.1995 22.9952 16.2095 22.1627C18.2195 21.3301 19.9375 19.9202 21.1462 18.1113C22.3549 16.3023 23 14.1756 23 12C22.9968 9.0836 21.8369 6.28755 19.7747 4.22535C17.7124 2.16314 14.9164 1.00319 12 1ZM9.2494 16.952C9.24877 17.0008 9.22895 17.0474 9.19424 17.0816C9.15952 17.1159 9.11271 17.1351 9.06394 17.1351H6.94439C6.89584 17.1351 6.84928 17.1158 6.81495 17.0815C6.78062 17.0472 6.76133 17.0006 6.76133 16.952V9.82986C6.76102 9.80562 6.76551 9.78156 6.77457 9.75907C6.78363 9.73659 6.79706 9.71612 6.81409 9.69887C6.83112 9.68161 6.85141 9.66791 6.87378 9.65856C6.89614 9.64921 6.92014 9.6444 6.94439 9.6444H9.06394C9.08829 9.6444 9.11241 9.6492 9.13491 9.65852C9.15742 9.66784 9.17786 9.6815 9.19508 9.69872C9.2123 9.71595 9.22596 9.73639 9.23528 9.75889C9.24461 9.78139 9.2494 9.80551 9.2494 9.82986V16.952ZM7.9295 8.69301C7.66606 8.69301 7.40855 8.6149 7.18951 8.46854C6.97047 8.32218 6.79975 8.11416 6.69894 7.87078C6.59813 7.6274 6.57175 7.35959 6.62314 7.10122C6.67454 6.84285 6.80139 6.60552 6.98767 6.41924C7.17395 6.23296 7.41128 6.10611 7.66965 6.05471C7.92802 6.00332 8.19583 6.0297 8.43921 6.13051C8.68259 6.23132 8.89061 6.40204 9.03697 6.62108C9.18333 6.84012 9.26144 7.09763 9.26144 7.36107C9.26176 7.53607 9.22753 7.70941 9.1607 7.87116C9.09388 8.0329 8.99578 8.17986 8.87203 8.3036C8.74829 8.42735 8.60133 8.52545 8.43959 8.59227C8.27784 8.6591 8.1045 8.69333 7.9295 8.69301ZM18.219 16.952C18.2183 17.0008 18.1985 17.0474 18.1638 17.0816C18.1291 17.1159 18.0823 17.1351 18.0335 17.1351H15.9139C15.8899 17.1351 15.8661 17.1304 15.8439 17.1212C15.8217 17.112 15.8015 17.0985 15.7845 17.0815C15.7675 17.0645 15.754 17.0443 15.7448 17.0221C15.7356 16.9999 15.7309 16.9761 15.7309 16.952V13.1248C15.7309 12.118 15.372 11.4388 14.4712 11.4388C14.1905 11.4404 13.9172 11.5287 13.6886 11.6917C13.4601 11.8547 13.2876 12.0844 13.1947 12.3492C13.1312 12.545 13.1034 12.7506 13.1128 12.9562V16.952C13.1128 17.0012 13.0932 17.0484 13.0584 17.0832C13.0237 17.118 12.9765 17.1375 12.9273 17.1375H10.8078C10.7835 17.1375 10.7595 17.1327 10.7371 17.1233C10.7148 17.114 10.6945 17.1003 10.6775 17.083C10.6604 17.0658 10.647 17.0453 10.6379 17.0228C10.6289 17.0003 10.6244 16.9763 10.6247 16.952C10.6247 15.9356 10.6512 11.0004 10.6247 9.8395C10.6244 9.81526 10.6289 9.7912 10.6379 9.76871C10.647 9.74622 10.6604 9.72576 10.6775 9.7085C10.6945 9.69125 10.7148 9.67755 10.7371 9.6682C10.7595 9.65885 10.7835 9.65404 10.8078 9.65404H12.9225C12.9469 9.65371 12.9712 9.65829 12.9938 9.6675C13.0165 9.6767 13.0371 9.69035 13.0544 9.70764C13.0716 9.72492 13.0853 9.7455 13.0945 9.76814C13.1037 9.79079 13.1083 9.81505 13.108 9.8395V10.7138C13.3332 10.3227 13.6613 10.0008 14.0567 9.78297C14.452 9.56515 14.8994 9.45975 15.3503 9.47821C16.9858 9.47821 18.2141 10.5476 18.2141 12.8502L18.219 16.952ZM13.1128 10.7379V10.7114L13.0959 10.7379H13.1128ZM13.0959 10.7379H13.1128V10.7114L13.0959 10.7379ZM13.0959 10.7379H13.1128V10.7114L13.0959 10.7379ZM13.0959 10.7379H13.1128V10.7114L13.0959 10.7379ZM13.0959 10.7379H13.1128V10.7114L13.0959 10.7379ZM13.0959 10.7379H13.1128V10.7114L13.0959 10.7379ZM13.0959 10.7379H13.1128V10.7114L13.0959 10.7379ZM13.0959 10.7379H13.1128V10.7114L13.0959 10.7379ZM13.0959 10.7379H13.1128V10.7114L13.0959 10.7379ZM13.0959 10.7379H13.1128V10.7114L13.0959 10.7379ZM13.0959 10.7379H13.1128V10.7114L13.0959 10.7379ZM13.0959 10.7379H13.1128V10.7114L13.0959 10.7379ZM13.0959 10.7379H13.1128V10.7114L13.0959 10.7379ZM13.0959 10.7379H13.1128V10.7114L13.0959 10.7379ZM13.0959 10.7379H13.1128V10.7114L13.0959 10.7379Z" fill="#42373C"/>
</svg>
