<svg width="24" height="24" viewBox="0 0 24 24" fill="none" xmlns="http://www.w3.org/2000/svg">
<path d="M12 0.25C18.4896 0.25 23.75 5.51042 23.75 12C23.75 18.4896 18.4896 23.75 12 23.75C5.51042 23.75 0.25 18.4896 0.25 12C0.25 5.51042 5.51042 0.25 12 0.25Z" fill="#42373C" stroke="#E9E5E5" stroke-width="0.5"/>
<path fill-rule="evenodd" clip-rule="evenodd" d="M8.47488 7.47107C10.9761 7.47107 13.0039 9.49888 13.0039 12.0001C13.0039 14.5014 10.9761 16.5292 8.47488 16.5292C5.9741 16.5292 3.94629 14.5014 3.94629 12.0001C3.94629 9.49888 5.9741 7.47107 8.47488 7.47107ZM19.2552 8.18638C19.6963 8.18638 20.0535 9.89404 20.0535 12.0001C20.0535 14.1062 19.6963 15.8139 19.2552 15.8139C18.8146 15.8139 18.4569 14.1062 18.4569 12.0001C18.4569 9.89404 18.8146 8.18638 19.2552 8.18638ZM15.7218 7.82873C16.9874 7.82873 18.013 9.69623 18.013 12.0001C18.013 14.304 16.9874 16.1715 15.7218 16.1715C14.4561 16.1715 13.43 14.304 13.43 12.0001C13.43 9.69623 14.4561 7.82873 15.7218 7.82873Z" fill="white"/>
</svg>
